<?xml version="1.0" encoding="utf-8"?>
<!-- Generator: Adobe Illustrator 19.0.0, SVG Export Plug-In . SVG Version: 6.00 Build 0)  -->
<svg version="1.1" id="Layer_1" xmlns="http://www.w3.org/2000/svg" xmlns:xlink="http://www.w3.org/1999/xlink" x="0px" y="0px"
	 viewBox="0 0 100 25" style="enable-background:new 0 0 100 25;" xml:space="preserve">
<style type="text/css">
	.st0{fill:#FFFFFF;}
</style>
<g id="XMLID_1_">
	<path id="XMLID_3_" class="st0" d="M13.7,5.6V19h-1.2v-1.9c-0.4,0.6-0.9,1.1-1.5,1.5c-0.6,0.3-1.3,0.5-2.1,0.5
		c-0.9,0-1.7-0.2-2.4-0.6c-0.7-0.4-1.3-1-1.7-1.7c-0.4-0.7-0.6-1.6-0.6-2.5c0-0.9,0.2-1.8,0.6-2.5c0.4-0.7,1-1.3,1.7-1.7
		c0.7-0.4,1.5-0.6,2.4-0.6c0.8,0,1.5,0.2,2.1,0.5c0.6,0.3,1.1,0.8,1.5,1.4V5.6H13.7z M10.7,17.5c0.5-0.3,1-0.7,1.3-1.3
		c0.3-0.6,0.5-1.2,0.5-1.9c0-0.7-0.2-1.4-0.5-1.9c-0.3-0.6-0.7-1-1.3-1.3c-0.5-0.3-1.1-0.5-1.8-0.5c-0.7,0-1.3,0.2-1.8,0.5
		c-0.5,0.3-1,0.7-1.3,1.3c-0.3,0.6-0.5,1.2-0.5,1.9c0,0.7,0.2,1.4,0.5,1.9s0.7,1,1.3,1.3C7.7,17.8,8.3,18,8.9,18
		C9.6,18,10.2,17.8,10.7,17.5z"/>
	<path id="XMLID_6_" class="st0" d="M25.5,14.7h-7.9c0.1,1,0.5,1.8,1.1,2.4c0.7,0.6,1.5,0.9,2.6,0.9c0.6,0,1.1-0.1,1.6-0.3
		c0.5-0.2,0.9-0.5,1.3-0.9l0.7,0.8c-0.4,0.5-0.9,0.9-1.6,1.2s-1.3,0.4-2.1,0.4c-1,0-1.8-0.2-2.6-0.6c-0.8-0.4-1.3-1-1.8-1.7
		c-0.4-0.7-0.6-1.6-0.6-2.5s0.2-1.8,0.6-2.5c0.4-0.7,1-1.3,1.7-1.7c0.7-0.4,1.5-0.6,2.4-0.6c0.9,0,1.7,0.2,2.4,0.6
		c0.7,0.4,1.2,1,1.6,1.7s0.6,1.6,0.6,2.5L25.5,14.7z M18.7,11.4c-0.6,0.6-1,1.3-1.1,2.3h6.7c-0.1-0.9-0.4-1.7-1.1-2.3
		c-0.6-0.6-1.4-0.9-2.3-0.9C20,10.6,19.3,10.8,18.7,11.4z"/>
	<path id="XMLID_9_" class="st0" d="M35.9,9.5L31.7,19h-1.3l-4.2-9.5h1.3l3.5,8.1l3.6-8.1H35.9z"/>
	<path id="XMLID_11_" class="st0" d="M42.4,18.4c-0.2,0.2-0.5,0.4-0.8,0.5c-0.3,0.1-0.7,0.2-1,0.2c-0.8,0-1.3-0.2-1.8-0.6
		c-0.4-0.4-0.6-1-0.6-1.8v-6.5h-1.8V9.7h1.8V7.6h0.6v2.1h3.1v0.5h-3.1v6.4c0,0.6,0.2,1.1,0.5,1.5c0.3,0.3,0.8,0.5,1.4,0.5
		s1.1-0.2,1.5-0.6L42.4,18.4z"/>
	<path id="XMLID_13_" class="st0" d="M46.9,10.2c0.6-0.4,1.4-0.6,2.3-0.6v0.6H49c-1.1,0-1.9,0.3-2.5,1c-0.6,0.7-0.9,1.6-0.9,2.8v5
		H45V9.7h0.6v2.3C45.8,11.2,46.3,10.6,46.9,10.2z"/>
	<path id="XMLID_15_" class="st0" d="M57.4,10.4c0.6,0.6,0.9,1.4,0.9,2.5v6h-0.6v-1.9c-0.3,0.6-0.7,1.1-1.3,1.4
		c-0.6,0.3-1.3,0.5-2.1,0.5c-1,0-1.9-0.2-2.5-0.7c-0.6-0.5-0.9-1.1-0.9-1.9c0-0.8,0.3-1.4,0.8-1.8c0.5-0.5,1.4-0.7,2.6-0.7h3.4v-0.9
		c0-0.9-0.2-1.6-0.7-2.1c-0.5-0.5-1.2-0.7-2.2-0.7c-0.7,0-1.3,0.1-1.9,0.3c-0.6,0.2-1.1,0.5-1.5,0.9L51.2,11c0.5-0.4,1-0.8,1.6-1
		c0.6-0.2,1.3-0.4,2-0.4C56,9.6,56.8,9.9,57.4,10.4z M57.7,16.3v-1.9h-3.4c-1,0-1.7,0.2-2.1,0.5s-0.7,0.9-0.7,1.5
		c0,0.7,0.2,1.2,0.7,1.6s1.2,0.6,2,0.6C56,18.5,57.1,17.8,57.7,16.3z"/>
	<path id="XMLID_18_" class="st0" d="M63.4,18.4c-0.7-0.4-1.3-1-1.7-1.7c-0.4-0.7-0.6-1.5-0.6-2.4s0.2-1.7,0.6-2.4
		c0.4-0.7,1-1.3,1.7-1.7c0.7-0.4,1.5-0.6,2.4-0.6c0.7,0,1.4,0.1,2,0.4c0.6,0.3,1.1,0.7,1.5,1.2l-0.5,0.4c-0.3-0.5-0.8-0.8-1.3-1.1
		c-0.5-0.2-1.1-0.4-1.7-0.4c-0.8,0-1.5,0.2-2.1,0.5c-0.6,0.4-1.1,0.8-1.4,1.5c-0.3,0.6-0.5,1.4-0.5,2.2s0.2,1.5,0.5,2.2
		c0.3,0.6,0.8,1.1,1.4,1.5s1.3,0.5,2.1,0.5c0.6,0,1.2-0.1,1.7-0.4c0.5-0.2,1-0.6,1.3-1.1l0.5,0.4c-0.4,0.5-0.9,0.9-1.5,1.2
		c-0.6,0.3-1.3,0.4-2,0.4C64.9,19.1,64.1,18.9,63.4,18.4z"/>
	<path id="XMLID_20_" class="st0" d="M75.1,13.8l-2.6,2.4V19h-0.6V5.6h0.6v9.8l6.3-5.8h0.8l-4,3.7l4.5,5.6h-0.8L75.1,13.8z"/>
	<path id="XMLID_22_" class="st0" d="M89.7,14.4h-8.2c0,0.8,0.2,1.5,0.6,2.1c0.4,0.6,0.9,1.1,1.5,1.5c0.6,0.3,1.3,0.5,2.1,0.5
		c0.6,0,1.2-0.1,1.8-0.4c0.5-0.2,1-0.6,1.3-1l0.4,0.4c-0.4,0.5-0.9,0.9-1.5,1.1c-0.6,0.3-1.2,0.4-1.9,0.4c-0.9,0-1.7-0.2-2.4-0.6
		c-0.7-0.4-1.3-1-1.7-1.7c-0.4-0.7-0.6-1.5-0.6-2.4s0.2-1.7,0.6-2.4c0.4-0.7,0.9-1.3,1.6-1.7c0.7-0.4,1.4-0.6,2.3-0.6
		c0.8,0,1.6,0.2,2.2,0.6s1.2,0.9,1.6,1.7s0.6,1.5,0.6,2.4V14.4z M83.4,10.6c-0.6,0.3-1,0.8-1.4,1.4s-0.5,1.2-0.6,2h7.6
		c0-0.7-0.2-1.4-0.6-2c-0.3-0.6-0.8-1-1.3-1.4c-0.6-0.3-1.2-0.5-1.9-0.5C84.6,10.1,84,10.3,83.4,10.6z"/>
	<path id="XMLID_25_" class="st0" d="M94.5,10.2c0.6-0.4,1.4-0.6,2.3-0.6v0.6h-0.2c-1.1,0-1.9,0.3-2.5,1c-0.6,0.7-0.9,1.6-0.9,2.8v5
		h-0.6V9.7h0.6v2.3C93.5,11.2,93.9,10.6,94.5,10.2z"/>
</g>
<g id="XMLID_2_">
</g>
<g id="XMLID_27_">
</g>
<g id="XMLID_28_">
</g>
<g id="XMLID_29_">
</g>
<g id="XMLID_30_">
</g>
<g id="XMLID_31_">
</g>
<g id="XMLID_32_">
</g>
<g id="XMLID_33_">
</g>
<g id="XMLID_34_">
</g>
<g id="XMLID_35_">
</g>
<g id="XMLID_36_">
</g>
<g id="XMLID_37_">
</g>
<g id="XMLID_38_">
</g>
<g id="XMLID_39_">
</g>
<g id="XMLID_40_">
</g>
</svg>
