<?xml version="1.0" encoding="utf-8"?>
<!-- Generator: Adobe Illustrator 19.0.0, SVG Export Plug-In . SVG Version: 6.00 Build 0)  -->
<svg version="1.1" id="Layer_1" xmlns="http://www.w3.org/2000/svg" xmlns:xlink="http://www.w3.org/1999/xlink" x="0px" y="0px"
	 viewBox="22 -22 64 64" style="enable-background:new 22 -22 64 64;" xml:space="preserve">
<style type="text/css">
	.st0{fill:#E1E0DF;}
	.st1{fill:#FFFFFF;}
	.st2{fill:#282828;}
	.st3{fill:#E7E7E7;}
	.st4{fill:#A8B2C6;}
	.st5{fill:none;}
	.st6{fill:#464C55;}
</style>
<path class="st0" d="M63.5-14.6c-0.6,0.1-1.2,0.3-1.7,0.6C62.3-14.2,62.9-14.4,63.5-14.6z"/>
<path class="st1" d="M30.5,34.5l18-4c0.9-0.2,1.6-0.7,2.3-1.3L77.3,2.8c1.8-1.8,1.8-4.7,0-6.5l-9.7-9.6c-1.8-1.8-4.7-1.8-6.5,0
	L34.6,13.2c-0.6,0.6-1,1.4-1.3,2.3l-3.9,18C29.2,34.1,29.9,34.8,30.5,34.5"/>
<path class="st1" d="M74.1,6.1l3.3-3.3c1.8-1.8,1.8-4.7,0-6.5l-9.7-9.8c-1.8-1.8-4.7-1.8-6.5,0l-3.3,3.3L74.1,6.1"/>
<path class="st2" d="M42.8,21.2l-8.1-8.1l23.1-23.1L74.1,6.1L50.9,29.3L42.8,21.2"/>
<path class="st2" d="M42.8,21.2L65.9-2l8.1,8.1L50.9,29.3L42.8,21.2"/>
<path class="st3" d="M47.7,26.1L47.7,26.1c-0.7,0.7-1.4,1.2-2.4,1.3l-13.1,4.4l-2.7,1.6v0.1c-0.2,0.5,0.3,1.2,0.8,1.2c0,0,0,0,0,0
	c0.1,0,0.1,0,0.3,0l0,0l18-4c0.9-0.2,1.6-0.7,2.3-1.3l0,0L47.7,26.1 M70.8,2.9L70.8,2.9L74,6.1l0,0L70.8,2.9 M74.1-6.8
	c1.8,1.8,1.8,4.7,0,6.5l-3.2,3.2L74,6.1l0.1,0l3.3-3.3c0.9-0.9,1.3-2,1.3-3.2c0-1.1-0.4-2.4-1.3-3.3L74.1-6.8"/>
<path class="st2" d="M70.8,2.9L47.7,26.1l3.3,3.2L74.1,6.1l-0.1,0L70.8,2.9"/>
<path class="st4" d="M29.5,33.5l1.4-7.7l7.5,7.5l-7.8,1.3C29.9,34.8,29.2,34.1,29.5,33.5z"/>
<path class="st0" d="M77.9,2.2c0.3-0.5,0.5-1,0.7-1.6C78.4,1.1,78.3,1.7,77.9,2.2z"/>
<path class="st5" d="M57.8-10.1L74.1,6.1"/>
<path class="st6" d="M28.6,35.4c-0.6-0.7-0.9-1.5-0.6-2.3l4-18c0.3-1.2,0.8-2.2,1.6-3L60-14.3c2.3-2.4,6.2-2.4,8.6-0.1l9.7,9.7
	c2.3,2.4,2.3,6.3,0,8.6L51.8,30.4c-0.8,0.8-1.8,1.4-3,1.7L31,36C30.1,36.3,29.3,36,28.6,35.4z M66.5-12.3c-1.2-1.2-3.2-1.2-4.4,0
	L35.7,14.2c-0.4,0.4-0.7,0.9-0.8,1.5L31,32.9l17.2-3.8c0.5-0.2,1.1-0.4,1.5-0.8L76.2,1.9c1.2-1.2,1.2-3.2,0-4.4L66.5-12.3z"/>
</svg>
