<?xml version="1.0" encoding="utf-8"?>
<!-- Svg Vector Icons : http://www.onlinewebfonts.com/icon -->
<!DOCTYPE svg PUBLIC "-//W3C//DTD SVG 1.1//EN" "http://www.w3.org/Graphics/SVG/1.1/DTD/svg11.dtd">
<svg version="1.1" xmlns="http://www.w3.org/2000/svg" xmlns:xlink="http://www.w3.org/1999/xlink" x="0px" y="0px" viewBox="0 0 1000 1000" enable-background="new 0 0 1000 1000" xml:space="preserve">
<metadata> Svg Vector Icons : http://www.onlinewebfonts.com/icon </metadata>
<g><path d="M990,773c0,122-98.9,220.8-220.8,220.8c-122,0-220.8-98.9-220.8-220.8c0-122,98.9-220.8,220.8-220.8C891.1,552.2,990,651.1,990,773z M782,698.4c0-8.9-7.2-16.1-16.1-16.1h-14.8c-8.9,0-16.1,7.2-16.1,16.1V780c0,8.9,7.2,16.1,16.1,16.1h14.8c8.9,0,16.1-7.2,16.1-16.1V698.4z M756,762c-10.8,0-19.5,7.2-19.5,16.1v14.8c0,8.9,8.8,16.1,19.5,16.1h99.4c10.8,0,19.5-7.2,19.5-16.1V778c0-8.9-8.8-16.1-19.5-16.1H756z M769.2,607.6c-91.4,0-165.4,74.1-165.4,165.4s74.1,165.4,165.4,165.4S934.6,864.4,934.6,773S860.5,607.6,769.2,607.6z"/><path d="M793.2,144v388.1c24.8,2.6,48.4,8.8,70.5,18.2V108.7c0-19.5-15.8-35.2-35.2-35.2H638.3c6.9,10,11,22.1,11,35.2c0,13.1-4.1,25.2-11,35.2H793.2z"/><path d="M362.3,215.9h146.6c37.7,0,68.2-30.5,68.2-68.2v-6.1c0-37.6-30.5-68.2-68.2-68.2H506c2.3-5.9,3.6-12.3,3.6-18.9c0-28.2-22.9-51.1-51.1-51.1h-43.2c-28.2,0-51.1,22.9-51.1,51.1c0,6.7,1.3,13.1,3.6,18.9h-5.5c-37.7,0-68.2,30.5-68.2,68.2v6.1C294.1,185.4,324.6,215.9,362.3,215.9z"/><path d="M243.2,591.1l108.7,108.7c8.5,8.5,19.6,12.7,30.7,12.7c11.1,0,22.2-4.2,30.7-12.7l217.3-217.3c17-17,17-44.5,0-61.5c-17-17-44.5-17-61.5,0L382.5,607.6l-77.9-77.9c-17-17-44.5-17-61.5,0C226.2,546.7,226.2,574.2,243.2,591.1z"/><path d="M574.4,926.1h-494V144h153.8c-7-10-11-22.1-11-35.2c0-13.1,4.1-25.2,11-35.2H45.2C25.8,73.5,10,89.3,10,108.7v852.6c0,19.5,15.8,35.2,35.2,35.2h616.5C627.4,980.1,597.6,955.8,574.4,926.1z"/></g>
</svg>