<?xml version="1.0" encoding="utf-8"?>
<!-- Svg Vector Icons : http://www.onlinewebfonts.com/icon -->
<!DOCTYPE svg PUBLIC "-//W3C//DTD SVG 1.1//EN" "http://www.w3.org/Graphics/SVG/1.1/DTD/svg11.dtd">
<svg version="1.1" xmlns="http://www.w3.org/2000/svg" xmlns:xlink="http://www.w3.org/1999/xlink" x="0px" y="0px" viewBox="0 0 1000 1000" enable-background="new 0 0 1000 1000" xml:space="preserve">
<metadata> Svg Vector Icons : http://www.onlinewebfonts.com/icon </metadata>
<g><path d="M471.4,85.9l413.2,413.2c27.1,27.2,26.8,71.8-0.3,99l-299.7,301l30,0.1c38.5,0.2,91.7-21.7,119-48.9l225.1-224.1c41.7-41.5,41.8-109,0.2-150.7l-321.4-322c-27.2-27.2-80-54.3-117.9-60.4L471.4,85.9z"/><path d="M327.6,125.9l-250.8,6.3c-31.2,0-56.6,25.2-56.6,56.4L10,436.8c-0.1,47.8,27.1,113.9,60.9,147.7l303.6,304.2c33.7,33.8,88.5,33.8,122.3,0.1l274.9-274.9c33.8-33.8,35.5-90.2,2-124.3L473.3,189.1C439.8,155.1,375.4,126,327.6,125.9z M278.5,323c0,39-31.6,70.6-70.6,70.6c-39,0-70.6-31.6-70.6-70.6c0-39,31.6-70.6,70.6-70.6C246.9,252.5,278.5,284.1,278.5,323z"/></g>
</svg>