<?xml version="1.0" encoding="utf-8"?>
<!-- Generator: Adobe Illustrator 19.0.0, SVG Export Plug-In . SVG Version: 6.00 Build 0)  -->
<svg version="1.1" id="Layer_1" xmlns="http://www.w3.org/2000/svg" xmlns:xlink="http://www.w3.org/1999/xlink" x="0px" y="0px"
	 viewBox="248 -247 511 511" style="enable-background:new 248 -247 511 511;" xml:space="preserve">
<style type="text/css">
	.st0{fill:#C7D1D8;}
</style>
<path class="st0" d="M560.9,169l-40.5,40.5V8.5c0-8.8-7.2-16-16-16s-16,7.2-16,16v201L448.1,169c-6.1-6.3-16.2-6.5-22.6-0.4
	c-6.3,6.1-6.5,16.2-0.4,22.6c0.1,0.1,0.3,0.3,0.4,0.4l67.7,67.7c1.5,1.5,3.2,2.6,5.2,3.4c3.9,1.7,8.4,1.7,12.3,0
	c1.9-0.8,3.7-2,5.2-3.4l67.7-67.7c6.3-6.1,6.5-16.2,0.4-22.6c-6.1-6.3-16.2-6.5-22.6-0.4C561.2,168.7,561.1,168.9,560.9,169z"/>
<path class="st0" d="M712.1-183.1H513c-0.6-1-1.4-1.9-2.2-2.7l-54.5-52.3c-5.9-5.7-13.8-8.9-22.1-8.9H296.9
	c-26.5,0-47.9,21.4-47.9,47.9V88.3c0,26.5,21.4,47.9,47.9,47.9h143.7c8.8,0,16-7.2,16-16s-7.2-16-16-16H296.9c-8.8,0-16-7.2-16-16
	v-287.4c0-8.8,7.2-16,16-16h137.3l53.4,51.3c6,7.9,15.4,12.6,25.4,12.6h199.1c8.8,0,16,7.2,16,16V88.3c0,8.8-7.2,16-16,16H568.4
	c-8.8,0-16,7.2-16,16s7.2,16,16,16h143.7c26.5,0,47.9-21.4,47.9-47.9v-223.6C760-161.7,738.6-183.1,712.1-183.1z"/>
</svg>
