<?xml version="1.0" encoding="utf-8"?>
<!-- Generator: Adobe Illustrator 19.0.0, SVG Export Plug-In . SVG Version: 6.00 Build 0)  -->
<svg version="1.1" id="Layer_1" xmlns="http://www.w3.org/2000/svg" xmlns:xlink="http://www.w3.org/1999/xlink" x="0px" y="0px"
	 viewBox="0 0 32 32" style="enable-background:new 0 0 32 32;" xml:space="preserve">
<style type="text/css">
	.st0{fill-rule:evenodd;clip-rule:evenodd;fill:#181616;}
	.st1{fill:#181616;}
</style>
<g id="XMLID_2_">
	<path id="XMLID_24_" class="st0" d="M16,1.1C7.6,1.1,0.7,8,0.7,16.4c0,6.7,4.4,12.5,10.4,14.5c0.8,0.1,1-0.3,1-0.7
		c0-0.4,0-1.6,0-2.8c-4.2,0.9-5.1-1.8-5.1-1.8c-0.7-1.8-1.7-2.2-1.7-2.2c-1.4-0.9,0.1-0.9,0.1-0.9c1.5,0.1,2.3,1.6,2.3,1.6
		c1.4,2.3,3.6,1.7,4.4,1.3c0.1-1,0.5-1.7,1-2c-3.4-0.4-6.9-1.7-6.9-7.5c0-1.7,0.6-3,1.6-4.1c-0.2-0.4-0.7-1.9,0.1-4
		C8,7.5,9.3,7,12.2,9c1.2-0.3,2.5-0.5,3.8-0.5c1.3,0,2.6,0.2,3.8,0.5C22.7,7,24,7.5,24,7.5c0.8,2.1,0.3,3.7,0.1,4
		c1,1.1,1.6,2.4,1.6,4.1c0,5.9-3.6,7.1-7,7.5c0.5,0.5,1,1.4,1,2.8c0,2,0,3.7,0,4.2c0,0.4,0.3,0.9,1,0.7c6.1-2,10.4-7.7,10.4-14.5
		C31.2,8,24.4,1.1,16,1.1z"/>
	<path id="XMLID_21_" class="st1" d="M6.5,23c0,0.1-0.2,0.1-0.3,0c-0.1,0-0.2-0.2-0.1-0.2c0-0.1,0.2-0.1,0.3,0
		C6.5,22.8,6.6,22.9,6.5,23L6.5,23z M6.3,22.9"/>
	<path id="XMLID_18_" class="st1" d="M7.1,23.7c-0.1,0.1-0.2,0-0.3-0.1c-0.1-0.1-0.1-0.2,0-0.3c0.1-0.1,0.2,0,0.3,0.1
		C7.2,23.5,7.2,23.6,7.1,23.7L7.1,23.7z M7,23.6"/>
	<path id="XMLID_15_" class="st1" d="M7.7,24.6c-0.1,0.1-0.2,0-0.3-0.1c-0.1-0.1-0.1-0.3,0-0.4c0.1-0.1,0.2,0,0.3,0.1
		C7.8,24.4,7.8,24.5,7.7,24.6L7.7,24.6z M7.7,24.6"/>
	<path id="XMLID_12_" class="st1" d="M8.6,25.4c-0.1,0.1-0.3,0.1-0.4-0.1C8,25.3,8,25.1,8.1,25c0.1-0.1,0.3-0.1,0.4,0.1
		C8.6,25.2,8.7,25.3,8.6,25.4L8.6,25.4z M8.6,25.4"/>
	<path id="XMLID_9_" class="st1" d="M9.7,25.9c0,0.1-0.2,0.2-0.4,0.1C9.2,26,9,25.9,9.1,25.7c0-0.1,0.2-0.2,0.4-0.1
		C9.6,25.7,9.7,25.8,9.7,25.9L9.7,25.9z M9.7,25.9"/>
	<path id="XMLID_6_" class="st1" d="M11,26c0,0.1-0.1,0.2-0.3,0.2c-0.2,0-0.3-0.1-0.3-0.2c0-0.1,0.1-0.2,0.3-0.2
		C10.8,25.8,11,25.9,11,26L11,26z M11,26"/>
	<path id="XMLID_3_" class="st1" d="M12.1,25.8c0,0.1-0.1,0.2-0.3,0.3c-0.2,0-0.3,0-0.4-0.2c0-0.1,0.1-0.3,0.3-0.3
		C11.9,25.6,12.1,25.7,12.1,25.8L12.1,25.8z M12.1,25.8"/>
</g>
<g id="XMLID_1_">
</g>
<g id="XMLID_25_">
</g>
<g id="XMLID_26_">
</g>
<g id="XMLID_27_">
</g>
<g id="XMLID_28_">
</g>
<g id="XMLID_29_">
</g>
<g id="XMLID_30_">
</g>
<g id="XMLID_31_">
</g>
<g id="XMLID_32_">
</g>
<g id="XMLID_33_">
</g>
<g id="XMLID_34_">
</g>
<g id="XMLID_35_">
</g>
<g id="XMLID_36_">
</g>
<g id="XMLID_37_">
</g>
<g id="XMLID_38_">
</g>
</svg>
