<?xml version="1.0" encoding="utf-8"?>
<!-- Generator: Adobe Illustrator 19.0.0, SVG Export Plug-In . SVG Version: 6.00 Build 0)  -->
<svg version="1.1" id="Layer_1" xmlns="http://www.w3.org/2000/svg" xmlns:xlink="http://www.w3.org/1999/xlink" x="0px" y="0px"
	 viewBox="-33 -4 32 32" style="enable-background:new -33 -4 32 32;" xml:space="preserve">
<style type="text/css">
	.st0{fill:#FFFFFF;}
</style>
<g id="XMLID_2_">
	<path id="XMLID_24_" class="st0" d="M-17-2.9c-8.4,0-15.3,6.9-15.3,15.3c0,6.7,4.4,12.5,10.4,14.5c0.8,0.1,1-0.3,1-0.7
		c0-0.4,0-1.6,0-2.8c-4.2,0.9-5.1-1.8-5.1-1.8c-0.7-1.8-1.7-2.2-1.7-2.2c-1.4-0.9,0.1-0.9,0.1-0.9c1.5,0.1,2.3,1.6,2.3,1.6
		c1.4,2.3,3.6,1.7,4.4,1.3c0.1-1,0.5-1.7,1-2c-3.4-0.4-6.9-1.7-6.9-7.5c0-1.7,0.6-3,1.6-4.1c-0.2-0.4-0.7-1.9,0.1-4
		C-25,3.5-23.7,3-20.8,5c1.2-0.3,2.5-0.5,3.8-0.5s2.6,0.2,3.8,0.5C-10.3,3-9,3.5-9,3.5c0.8,2.1,0.3,3.7,0.1,4c1,1.1,1.6,2.4,1.6,4.1
		c0,5.9-3.6,7.1-7,7.5c0.5,0.5,1,1.4,1,2.8c0,2,0,3.7,0,4.2c0,0.4,0.3,0.9,1,0.7c6.1-2,10.4-7.7,10.4-14.5C-1.8,4-8.6-2.9-17-2.9z"
		/>
	<path id="XMLID_21_" class="st0" d="M-26.5,19c0,0.1-0.2,0.1-0.3,0c-0.1,0-0.2-0.2-0.1-0.2c0-0.1,0.2-0.1,0.3,0
		C-26.5,18.8-26.4,18.9-26.5,19L-26.5,19z"/>
	<path id="XMLID_18_" class="st0" d="M-25.9,19.7c-0.1,0.1-0.2,0-0.3-0.1c-0.1-0.1-0.1-0.2,0-0.3c0.1-0.1,0.2,0,0.3,0.1
		C-25.8,19.5-25.8,19.6-25.9,19.7L-25.9,19.7z"/>
	<path id="XMLID_15_" class="st0" d="M-25.3,20.6c-0.1,0.1-0.2,0-0.3-0.1s-0.1-0.3,0-0.4s0.2,0,0.3,0.1
		C-25.2,20.4-25.2,20.5-25.3,20.6L-25.3,20.6z"/>
	<path id="XMLID_12_" class="st0" d="M-24.4,21.4c-0.1,0.1-0.3,0.1-0.4-0.1c-0.2,0-0.2-0.2-0.1-0.3s0.3-0.1,0.4,0.1
		C-24.4,21.2-24.3,21.3-24.4,21.4L-24.4,21.4z"/>
	<path id="XMLID_9_" class="st0" d="M-23.3,21.9c0,0.1-0.2,0.2-0.4,0.1c-0.1,0-0.3-0.1-0.2-0.3c0-0.1,0.2-0.2,0.4-0.1
		C-23.4,21.7-23.3,21.8-23.3,21.9L-23.3,21.9z"/>
	<path id="XMLID_6_" class="st0" d="M-22,22c0,0.1-0.1,0.2-0.3,0.2c-0.2,0-0.3-0.1-0.3-0.2s0.1-0.2,0.3-0.2
		C-22.2,21.8-22,21.9-22,22L-22,22z"/>
	<path id="XMLID_3_" class="st0" d="M-20.9,21.8c0,0.1-0.1,0.2-0.3,0.3c-0.2,0-0.3,0-0.4-0.2c0-0.1,0.1-0.3,0.3-0.3
		C-21.1,21.6-20.9,21.7-20.9,21.8L-20.9,21.8z"/>
</g>
<g id="XMLID_1_">
</g>
<g id="XMLID_25_">
</g>
<g id="XMLID_26_">
</g>
<g id="XMLID_27_">
</g>
<g id="XMLID_28_">
</g>
<g id="XMLID_29_">
</g>
<g id="XMLID_30_">
</g>
<g id="XMLID_31_">
</g>
<g id="XMLID_32_">
</g>
<g id="XMLID_33_">
</g>
<g id="XMLID_34_">
</g>
<g id="XMLID_35_">
</g>
<g id="XMLID_36_">
</g>
<g id="XMLID_37_">
</g>
<g id="XMLID_38_">
</g>
</svg>
