<?xml version="1.0" encoding="utf-8"?>
<!-- Generator: Adobe Illustrator 19.0.0, SVG Export Plug-In . SVG Version: 6.00 Build 0)  -->
<svg version="1.1" id="Layer_1" xmlns="http://www.w3.org/2000/svg" xmlns:xlink="http://www.w3.org/1999/xlink" x="0px" y="0px"
	 viewBox="-1 3 16 16" style="enable-background:new -1 3 16 16;" xml:space="preserve">
<style type="text/css">
	.st0{fill:#DBDBDB;stroke:#FFFFFF;stroke-miterlimit:10;}
</style>
<path class="st0" d="M7,12.7l-3.9,3.9l-1.7-1.7L5.3,11L1.4,7.1l1.7-1.7L7,9.3l3.9-3.9l1.7,1.7L8.7,11l3.9,3.9l-1.7,1.7L7,12.7z"/>
<path class="st0" d="M10.9,5.7l1.4,1.4l-3.6,3.6L8.4,11l0.4,0.4l3.6,3.6l-1.4,1.3l-3.6-3.6L7,12.4l-0.4,0.4l-3.6,3.6l-1.3-1.3
	l3.6-3.6L5.7,11l-0.4-0.4L1.7,7.1l1.4-1.3l3.6,3.6L7,9.6l0.4-0.4L10.9,5.7 M10.9,5L7,8.9L3.1,5L1,7.1L4.9,11L1,14.9L3.1,17L7,13.1
	l3.9,3.9l2.1-2.1L9.1,11L13,7.1L10.9,5L10.9,5z"/>
</svg>
