<?xml version="1.0" encoding="utf-8"?>
<!-- Generator: Adobe Illustrator 19.0.0, SVG Export Plug-In . SVG Version: 6.00 Build 0)  -->
<svg version="1.1" id="Layer_1" xmlns="http://www.w3.org/2000/svg" xmlns:xlink="http://www.w3.org/1999/xlink" x="0px" y="0px"
	 viewBox="495 -495 1000 1000" style="enable-background:new 495 -495 1000 1000;" xml:space="preserve">
<style type="text/css">
	.st0{fill:#EDE4E4;}
</style>
<g>
	<path class="st0" d="M966.4-409.1L1379.6,4.1c27.1,27.2,26.8,71.8-0.3,99l-299.7,301l30,0.1c38.5,0.2,91.7-21.7,119-48.9
		l225.1-224.1c41.7-41.5,41.8-109,0.2-150.7l-321.4-322c-27.2-27.2-80-54.3-117.9-60.4L966.4-409.1z"/>
	<path class="st0" d="M822.6-369.1l-250.8,6.3c-31.2,0-56.6,25.2-56.6,56.4L505-58.2c-0.1,47.8,27.1,113.9,60.9,147.7l303.6,304.2
		c33.7,33.8,88.5,33.8,122.3,0.1l274.9-274.9c33.8-33.8,35.5-90.2,2-124.3L968.3-305.9C934.8-339.9,870.4-369,822.6-369.1z
		 M773.5-172c0,39-31.6,70.6-70.6,70.6S632.3-133,632.3-172s31.6-70.6,70.6-70.6C741.9-242.5,773.5-210.9,773.5-172z"/>
</g>
</svg>
