<?xml version="1.0" encoding="utf-8"?>
<!-- Generator: Adobe Illustrator 19.0.0, SVG Export Plug-In . SVG Version: 6.00 Build 0)  -->
<svg version="1.1" id="Capa_1" xmlns="http://www.w3.org/2000/svg" xmlns:xlink="http://www.w3.org/1999/xlink" x="0px" y="0px"
	 viewBox="251 -251 512 512" style="enable-background:new 251 -251 512 512;" xml:space="preserve">
<style type="text/css">
	.st0{fill:#F2F2F2;}
</style>
<g>
	<g>
		<path class="st0" d="M752,220.7L607.9,76.7C635.2,42.9,651.7,0,651.7-46.7c0-108.3-88.1-196.3-196.3-196.3S259-154.9,259-46.7
			s88.1,196.3,196.3,196.3c46.7,0,89.6-16.5,123.3-43.8L722.7,250c4,4,10.6,4,14.6,0l14.6-14.6C756,231.3,756,224.8,752,220.7z
			 M455.3,108.3c-85.5,0-155-69.5-155-155s69.5-155,155-155s155,69.5,155,155S540.8,108.3,455.3,108.3z"/>
	</g>
</g>
</svg>
