<?xml version="1.0" encoding="utf-8"?>
<!-- Generator: Adobe Illustrator 19.0.0, SVG Export Plug-In . SVG Version: 6.00 Build 0)  -->
<svg version="1.1" id="Layer_1" xmlns="http://www.w3.org/2000/svg" xmlns:xlink="http://www.w3.org/1999/xlink" x="0px" y="0px"
	 viewBox="251 -251 512 512" style="enable-background:new 251 -251 512 512;" xml:space="preserve">
<style type="text/css">
	.st0{fill:#F2F2F2;}
</style>
<g>
	<g>
		<g>
			<path class="st0" d="M671.4-159.4l-85.3-85.3c0,0,0,0,0,0c-0.5-0.5-1-1-1.6-1.4c-0.2-0.2-0.5-0.4-0.8-0.6
				c-0.3-0.2-0.6-0.5-0.9-0.7c-0.3-0.2-0.6-0.4-0.9-0.6c-0.3-0.2-0.6-0.4-0.9-0.5c-0.3-0.2-0.6-0.3-1-0.5c-0.3-0.1-0.6-0.3-0.9-0.4
				c-0.3-0.1-0.6-0.2-1-0.3c-0.3-0.1-0.7-0.3-1-0.4c-0.3-0.1-0.6-0.2-1-0.2c-0.4-0.1-0.7-0.2-1.1-0.3c-0.4-0.1-0.8-0.1-1.1-0.2
				c-0.3,0-0.6-0.1-0.9-0.1c-1.4-0.1-2.8-0.1-4.2,0c-0.3,0-0.6,0.1-0.9,0.1c-0.4,0.1-0.8,0.1-1.1,0.2c-0.4,0.1-0.7,0.2-1.1,0.3
				c-0.3,0.1-0.6,0.2-1,0.2c-0.3,0.1-0.7,0.2-1,0.4c-0.3,0.1-0.6,0.2-1,0.3c-0.3,0.1-0.6,0.3-0.9,0.4c-0.3,0.2-0.7,0.3-1,0.5
				c-0.3,0.2-0.6,0.3-0.9,0.5c-0.3,0.2-0.6,0.4-0.9,0.6c-0.3,0.2-0.6,0.4-0.9,0.7c-0.3,0.2-0.5,0.4-0.8,0.6
				c-0.5,0.4-1.1,0.9-1.6,1.4c0,0,0,0,0,0l-85.3,85.3c-8.3,8.3-8.3,21.8,0,30.2c8.3,8.3,21.8,8.3,30.2,0l48.9-48.9V69
				c0,11.8,9.6,21.3,21.3,21.3s21.3-9.6,21.3-21.3v-247.2l48.9,48.9c8.3,8.3,21.8,8.3,30.2,0C679.7-137.6,679.7-151.1,671.4-159.4z"
				/>
			<path class="st0" d="M513.2,139.2l-48.9,48.9V-59c0-11.8-9.6-21.3-21.3-21.3s-21.3,9.6-21.3,21.3v247.2l-48.9-48.9
				c-8.3-8.3-21.8-8.3-30.2,0s-8.3,21.8,0,30.2l85.3,85.3c0,0,0,0,0,0c0.5,0.5,1,1,1.6,1.4c0.2,0.2,0.5,0.4,0.8,0.6
				c0.3,0.2,0.6,0.5,0.9,0.7c0.3,0.2,0.6,0.4,0.9,0.6c0.3,0.2,0.6,0.4,0.9,0.5c0.3,0.2,0.6,0.3,1,0.5c0.3,0.1,0.6,0.3,0.9,0.4
				c0.3,0.1,0.6,0.2,1,0.4c0.3,0.1,0.7,0.3,1,0.4c0.3,0.1,0.6,0.2,1,0.2c0.4,0.1,0.7,0.2,1.1,0.3c0.4,0.1,0.8,0.1,1.1,0.2
				c0.3,0,0.6,0.1,0.9,0.1c1.4,0.1,2.8,0.1,4.2,0c0.3,0,0.6-0.1,0.9-0.1c0.4-0.1,0.8-0.1,1.1-0.2c0.4-0.1,0.7-0.2,1.1-0.3
				c0.3-0.1,0.6-0.2,1-0.2c0.3-0.1,0.7-0.2,1-0.4c0.3-0.1,0.6-0.2,1-0.4c0.3-0.1,0.6-0.3,0.9-0.4c0.3-0.2,0.7-0.3,1-0.5
				c0.3-0.2,0.6-0.3,0.9-0.5c0.3-0.2,0.6-0.4,0.9-0.6c0.3-0.2,0.6-0.4,0.9-0.7c0.3-0.2,0.5-0.4,0.8-0.6c0.5-0.4,1-0.9,1.5-1.4
				c0,0,0,0,0,0l85.3-85.3c8.3-8.3,8.3-21.8,0-30.2C535.1,130.9,521.6,130.9,513.2,139.2z"/>
		</g>
	</g>
</g>
</svg>
